<svg xmlns="http://www.w3.org/2000/svg" width="334" height="337" viewBox="0 0 334 337" xmlns:xlink="http://www.w3.org/1999/xlink">
  <defs>
    <rect id="b" width="254" height="250" y="37" rx="38"/>
    <filter id="a" width="151.2%" height="152%" x="-25.6%" y="-22%" filterUnits="objectBoundingBox">
      <feOffset dy="10" in="SourceAlpha" result="shadowOffsetOuter1"/>
      <feGaussianBlur stdDeviation="20" in="shadowOffsetOuter1" result="shadowBlurOuter1"/>
      <feColorMatrix values="0 0 0 0 0.440703533 0 0 0 0 0.503310129 0 0 0 0 0.68486926 0 0 0 0.384454257 0" in="shadowBlurOuter1"/>
    </filter>
    <filter id="c" width="135.4%" height="136%" x="-17.7%" y="-14%" filterUnits="objectBoundingBox">
      <feOffset dy="-10" in="SourceAlpha" result="shadowOffsetInner1"/>
      <feComposite in="shadowOffsetInner1" in2="SourceAlpha" operator="arithmetic" k2="-1" k3="1" result="shadowInnerInner1"/>
      <feColorMatrix values="0 0 0 0 0.403921569 0 0 0 0 0.458823529 0 0 0 0 0.631372549 0 0 0 0.06 0" in="shadowInnerInner1"/>
    </filter>
    <linearGradient id="d" x1="0%" y1="100%" y2="0%">
      <stop stop-color="#00D8FF" offset="0%"/>
      <stop stop-color="#00A7FF" offset="100%"/>
    </linearGradient>
    <linearGradient id="e" x1="21.895%" x2="77.978%" y1="121.561%" y2="8.499%">
      <stop stop-color="#201C38" offset="0%"/>
      <stop stop-color="#3E396B" offset="100%"/>
    </linearGradient>
  </defs>
  <g fill="none" fill-rule="evenodd" transform="translate(40)">
    <use fill="black" filter="url(#a)" xlink:href="#b"/>
    <use fill="#FFFFFF" xlink:href="#b"/>
    <use fill="black" filter="url(#c)" xlink:href="#b"/>
    <g transform="translate(31 89)">
      <g fill-rule="nonzero" transform="translate(52)">
        <path fill="url(#d)" d="M43.4,35.4 C45.4,35.4 47.3,35 49.2,34.4 L52.4,39.9 L54.6,43.7 C55.2,44.8 56.3,45.4 57.5,45.4 C58.1,45.4 58.6,45.3 59.2,45 C60.8,44.1 61.3,42 60.4,40.4 L58.2,36.6 L55,31 C58.7,27.8 61.1,23 61.1,17.7 C61.1,8 53.2,0.1 43.5,0.1 C33.8,0.1 25.8,8 25.8,17.8 C25.8,27.6 33.7,35.4 43.4,35.4 Z M43.4,6.8 C49.4,6.8 54.3,11.7 54.3,17.7 C54.3,23.7 49.4,28.6 43.4,28.6 C37.4,28.6 32.5,23.7 32.5,17.7 C32.5,11.7 37.4,6.8 43.4,6.8 Z"/>
        <path fill="url(#e)" d="M69.3,44.8 C60.7,44.8 53.6,51 52,59.1 L45.7,59.1 L41.3,59.1 C39.5,59.1 38,60.6 38,62.4 C38,64.2 39.5,65.7 41.3,65.7 L45.7,65.7 L52,65.7 C53.6,73.8 60.7,80 69.3,80 C79,80 86.9,72.1 86.9,62.4 C86.9,52.7 79,44.8 69.3,44.8 Z M69.3,73.4 C63.3,73.4 58.4,68.5 58.4,62.5 C58.4,56.5 63.3,51.6 69.3,51.6 C75.3,51.6 80.2,56.5 80.2,62.5 C80.2,68.5 75.3,73.4 69.3,73.4 Z M29.2,49.2 C32.9,52.4 35.3,57.1 35.2,62.5 C35.2,72.2 27.3,80.1 17.6,80.1 C7.9,80.1 0,72.3 0,62.5 C0,52.7 7.9,44.8 17.6,44.8 C19.7,44.8 21.6,45.2 23.4,45.8 L26.6,40.3 L28.8,36.5 C29.8,34.9 31.8,34.4 33.4,35.3 C35,36.3 35.5,38.3 34.6,39.9 L32.4,43.7 L29.2,49.2 Z M17.6,73.4 C23.7,73.4 28.6,68.5 28.5,62.5 C28.5,56.5 23.6,51.6 17.6,51.6 C11.6,51.6 6.7,56.5 6.7,62.5 C6.7,68.5 11.6,73.4 17.6,73.4 Z"/>
      </g>
      <text fill="#3E396B" font-family="Montserrat-SemiBold, Montserrat" font-size="24" font-weight="500">
        <tspan x="10.492" y="124">InstantSearch</tspan>
      </text>
      <text fill="#8994C6" font-family="Montserrat-Regular, Montserrat" font-size="16">
        <tspan x=".848" y="148">for React &amp; React Native</tspan>
      </text>
    </g>
    <g transform="translate(217)">
      <circle cx="37.277" cy="37.277" r="37.277" fill="url(#d)"/>
      <path fill="#FFFFFF" d="M54.0876102,29.1577623 L54.0876102,29.1577623 C53.5113229,28.962463 52.930131,28.7840414 52.3464868,28.6176753 C52.4445783,28.2294877 52.5328606,27.8413001 52.6162384,27.4507014 C53.9355685,21.1577225 53.0723636,16.0871729 50.1296199,14.4186896 C47.3070382,12.8177172 42.6893828,14.4862005 38.0275863,18.476576 C37.5690087,18.8695858 37.117788,19.2770622 36.681281,19.6917719 C36.3870066,19.4144951 36.0878277,19.1444515 35.7837442,18.8768191 C30.8963373,14.6115778 25.9991212,12.812895 23.0588298,14.4862005 C20.2387004,16.0919951 19.4024707,20.8563347 20.5893773,26.8214035 C20.7070871,27.4121237 20.8419628,28.0004329 20.9891,28.5839198 C20.2951029,28.7768081 19.6256287,28.9841629 18.985582,29.2035733 C13.2545885,31.1686222 9.59822945,34.2476008 9.59822945,37.4399012 C9.59822945,40.7382901 13.5243401,44.0439123 19.4932053,46.04995 C19.9763057,46.2114939 20.4643107,46.3609823 20.9572203,46.5008263 C20.7978217,47.1301242 20.6555891,47.7642443 20.5329747,48.4007755 C19.4000184,54.2621669 20.2852938,58.9131846 23.0980664,60.5093348 C26.0040258,62.1561182 30.8791713,60.4635239 35.6267978,56.3839376 C36.0019977,56.0608498 36.3796498,55.7184731 36.7548496,55.3616299 C37.2305932,55.8125061 37.7185982,56.2489158 38.2164123,56.6732699 C42.8144494,60.5647902 47.3560839,62.1344182 50.1664042,60.5358569 C53.0699114,58.8842514 54.0115893,53.8860348 52.7878984,47.8028219 C52.6947115,47.3374791 52.5843586,46.8649029 52.4641966,46.3802712 C52.8075167,46.2814159 53.1434799,46.1777385 53.469634,46.07165 C59.6739188,44.0511456 63.70793,40.7841011 63.70793,37.4423123 C63.70793,34.2355453 59.9314088,31.1372779 54.0876102,29.1577623 Z M39.5430993,20.1908702 C43.5378739,16.7719261 47.2727062,15.4241196 48.9721407,16.3885608 C50.7843804,17.4156907 51.4881866,21.5603767 50.3503257,26.9925918 C50.2767571,27.347024 50.1933793,27.699045 50.1075493,28.051066 C47.8637072,27.5423233 45.4261345,27.1637801 42.8733043,26.927492 C41.3872187,24.8467101 39.8447305,22.9539943 38.2997901,21.3144442 C38.701965,20.9286677 39.1188537,20.5549468 39.5430993,20.1908702 Z M25.5748757,40.1668587 C26.065333,41.0951333 26.5754085,42.0137636 27.110007,42.9203383 C27.6544146,43.8437908 28.2208928,44.7551877 28.8094415,45.652118 C27.0364384,45.4568187 25.3664313,45.1940085 23.8214909,44.8636874 C24.2972344,43.3446925 24.8857832,41.7702422 25.5748757,40.1668587 Z M25.5699711,34.8214433 C24.8980446,33.2518152 24.3217573,31.7087093 23.8509183,30.2186477 C25.3958588,29.8786821 27.041343,29.6014053 28.7554912,29.3916393 C28.1816562,30.2716919 27.6274394,31.1662111 27.0977456,32.0727859 C26.5680517,32.9745384 26.0579761,33.8931686 25.5699711,34.8214433 Z M26.8010189,37.4929454 C27.512182,36.0342281 28.2797476,34.604444 29.1037159,33.2035932 L29.1037159,33.2035932 C29.9252318,31.8027423 30.8006981,30.4332358 31.7276624,29.0974848 C33.3363623,28.9769296 34.9867511,28.9142409 36.6543059,28.9142409 C38.3292175,28.9142409 39.9820586,28.9769296 41.5907585,29.0974848 C42.5079136,30.4308247 43.3784753,31.795509 44.197539,33.1891266 C45.0215072,34.5875663 45.798882,36.0101171 46.5296634,37.4567789 C45.8062389,38.9179073 45.0313164,40.3549247 44.2048958,41.7630089 L44.2048958,41.7630089 C43.3858322,43.1638597 42.520175,44.5357773 41.6079245,45.8811728 C40.0016769,45.9944947 38.3439312,46.0523611 36.6518536,46.0523611 C34.9671328,46.0523611 33.3290054,46.001728 31.7521852,45.9004617 C30.8178641,44.5598884 29.935041,43.1831486 29.1086204,41.7750644 C28.2846522,40.3814469 27.5146343,38.9516628 26.8010189,37.4929454 Z M46.2059616,42.9034606 C46.7503692,41.9751859 47.2727062,41.0348558 47.7754249,40.0848812 L47.7754249,40.0848812 C48.4988494,41.7051424 49.1094687,43.2747705 49.5925692,44.7648321 C48.0231058,45.1168532 46.3285759,45.4013633 44.5457636,45.6111293 C45.1171464,44.7190212 45.6689108,43.8172687 46.2059616,42.9034606 Z M47.7533543,34.8214433 C47.2530879,33.8883464 46.7332032,32.964894 46.1961524,32.053497 L46.1961524,32.053497 C45.6664586,31.1541556 45.1195987,30.2668697 44.5506682,29.3940504 C46.2770779,29.6086386 47.9323712,29.8931487 49.4846686,30.2427587 C49.0187341,31.7111204 48.4375422,33.246993 47.7533543,34.8214433 Z M36.6788287,22.9395277 C37.7455733,24.0751572 38.8123179,25.3433974 39.8618965,26.7201372 C37.7308596,26.621282 35.5973704,26.621282 33.4663335,26.7177261 C34.5183644,25.3530418 35.5949181,24.0872127 36.6788287,22.9395277 Z M24.2138567,16.4560717 C26.0236441,15.4265307 30.0282279,16.8948924 34.2461606,20.5790578 C34.5159121,20.8153459 34.7856636,21.0612784 35.0578674,21.3168553 C33.4859518,22.9756942 31.9336544,24.865999 30.4475688,26.9250809 C27.9020955,27.1565468 25.4669751,27.5302678 23.2280375,28.0293661 C23.0907095,27.4868679 22.9656429,26.9395476 22.85529,26.3898161 L22.85529,26.3898161 C21.8375911,21.2782777 22.5144222,17.422924 24.2138567,16.4560717 Z M21.5751965,44.3091337 C21.1264281,44.1837563 20.6801119,44.0463234 20.2387004,43.8968351 C17.6000401,43.0095491 15.4224098,41.8570419 13.926515,40.6008572 C12.5851143,39.4700499 11.905831,38.348887 11.905831,37.4374901 C11.905831,35.5013744 14.8436702,33.0299938 19.7433385,31.349455 C20.3588624,31.139689 20.9792909,30.9468008 21.6046239,30.7732013 C22.281455,32.9383719 23.1691827,35.2023976 24.2408318,37.4929454 C23.1593735,39.8172488 22.2593844,42.117441 21.5751965,44.3091337 Z M34.1014757,54.6672322 C32.0023185,56.4707373 29.8982567,57.751033 28.0443281,58.3947975 L28.0443281,58.3947975 C26.3792256,58.9734622 25.0525387,58.9903399 24.250641,58.5346414 C22.5438496,57.5677891 21.8351388,53.8305795 22.8013397,48.8178963 C22.9165972,48.224765 23.0490206,47.6364558 23.1961578,47.0505578 C25.4130248,47.5327784 27.8653112,47.8799772 30.4892577,48.0873321 C31.9851525,50.1584696 33.5546158,52.063241 35.1338883,53.7293131 C34.797925,54.054812 34.4521526,54.3658443 34.1014757,54.6672322 Z M36.7425882,52.0994075 C35.6464161,50.9372559 34.5551487,49.6521379 33.4859518,48.2681648 C34.5208166,48.3091536 35.5777521,48.3284424 36.6518536,48.3284424 C37.7553825,48.3284424 38.8441977,48.3043314 39.9182991,48.2561093 C38.8638159,49.6666046 37.7995236,50.9541336 36.7425882,52.0994075 Z M50.7794758,55.2627747 C50.4582263,56.9698356 49.8083704,58.1102873 49.008925,58.5659858 C47.3045859,59.5376603 43.6555837,58.2742423 39.7245685,54.9469202 C39.2733478,54.5659659 38.8196748,54.1584895 38.3635495,53.726902 C39.8888717,52.087352 41.4117416,50.1801695 42.9002794,48.0632211 C45.5168691,47.8341663 47.9887738,47.4628564 50.2277114,46.9517026 C50.3380642,47.3905233 50.4361557,47.8196997 50.5195334,48.2392316 L50.5195334,48.2392316 C51.0590365,50.9300225 51.1375096,53.3604144 50.7794758,55.2627747 Z M52.741305,43.9113017 L52.741305,43.9113017 C52.4445783,44.0077458 52.1404948,44.1017788 51.8315067,44.1909896 C51.1473188,42.0595746 50.2228068,39.7931377 49.0923027,37.4519567 C50.1713088,35.166231 51.0590365,32.9287274 51.7260584,30.8093679 C52.2802751,30.9660896 52.8173258,31.1324557 53.3347583,31.3084662 C58.3423272,33.0034716 61.3954238,35.5086077 61.3954238,37.4399012 C61.3954238,39.4965721 58.0970986,42.1656631 52.741305,43.9113017 Z"/>
      <path fill="#FFFFFF" d="M36.9902691,31.8648454 C39.6583568,31.8648454 41.8212734,33.9914382 41.8212734,36.6147183 C41.8212734,39.2379984 39.6583568,41.3645912 36.9902691,41.3645912 C34.3221814,41.3645912 32.1592648,39.2379984 32.1592648,36.6147183 C32.1592648,33.9914382 34.3221814,31.8648454 36.9902691,31.8648454"/>
    </g>
  </g>
</svg>
